<?xml version="1.0" encoding="utf-8"?>
<!-- Generator: Adobe Illustrator 13.0.0, SVG Export Plug-In . SVG Version: 6.00 Build 14948)  -->
<!DOCTYPE svg PUBLIC "-//W3C//DTD SVG 1.1//EN" "http://www.w3.org/Graphics/SVG/1.1/DTD/svg11.dtd">
<svg version="1.1" id="Capa_1" xmlns="http://www.w3.org/2000/svg" xmlns:xlink="http://www.w3.org/1999/xlink" x="0px" y="0px"
	 width="612px" height="792px" viewBox="0 0 612 792" enable-background="new 0 0 612 792" xml:space="preserve">
<g>
	<g>
		<path fill="#232323" d="M306,90C137.28,90,0,227.279,0,396C0,564.721,137.28,702,306,702s306-137.278,306-306
			C612,227.279,474.721,90,306,90z M306,663.75C158.355,663.75,38.25,543.645,38.25,396c0-147.645,120.104-267.75,267.75-267.75
			c147.645,0,267.75,120.105,267.75,267.75C573.75,543.645,453.645,663.75,306,663.75z"/>
	</g>
</g>
<g>
	<g>
		<path fill="#232323" d="M306,376.875c-31.098,0-57.375-17.519-57.375-38.25s26.277-38.25,57.375-38.25
			c17.595,0,33.889,5.508,44.676,15.07c7.879,7,19.928,6.35,27.004-1.606c7.038-7.879,6.312-19.966-1.606-27.004
			c-13.388-11.896-31.364-19.929-50.948-23.104V243c0-10.557-8.568-19.125-19.125-19.125c-10.558,0-19.125,8.568-19.125,19.125
			v20.655c-43.605,7.114-76.5,38.021-76.5,74.97c0,42.19,42.916,76.5,95.625,76.5c31.097,0,57.375,17.519,57.375,38.25
			c0,20.732-26.278,38.25-57.375,38.25c-17.596,0-33.89-5.508-44.676-15.07c-7.88-7.038-19.967-6.35-27.005,1.606
			c-7.038,7.88-6.312,19.967,1.606,27.005c13.388,11.934,31.365,19.928,50.949,23.142V549c0,10.558,8.567,19.125,19.125,19.125
			c10.557,0,19.125-8.567,19.125-19.125v-20.654c43.604-7.114,76.5-38.021,76.5-74.971C401.625,411.185,358.708,376.875,306,376.875
			z"/>
	</g>
</g>
</svg>
