<?xml version="1.0" encoding="utf-8"?>
<!-- Generator: Adobe Illustrator 13.0.0, SVG Export Plug-In . SVG Version: 6.00 Build 14948)  -->
<!DOCTYPE svg PUBLIC "-//W3C//DTD SVG 1.1//EN" "http://www.w3.org/Graphics/SVG/1.1/DTD/svg11.dtd">
<svg version="1.1" id="Capa_1" xmlns="http://www.w3.org/2000/svg" xmlns:xlink="http://www.w3.org/1999/xlink" x="0px" y="0px"
	 width="512px" height="512px" viewBox="0 0 512 512" enable-background="new 0 0 512 512" xml:space="preserve">
<g>
	<path fill="#232323" d="M459.669,82.906l-196-81.377c-4.91-2.038-10.431-2.039-15.338,0l-196,81.377
		C44.866,86.006,40,93.294,40,101.377v98.927c0,136.213,82.329,258.74,208.44,310.215c4.846,1.977,10.271,1.977,15.116,0
		C389.669,459.045,472,336.516,472,200.302v-98.927C472,93.294,467.135,86.006,459.669,82.906z M432,200.302
		c0,115.795-68,222.392-176,269.974C150.886,423.967,80,319.235,80,200.302v-85.573l176-73.074l176,73.074V200.302z
		 M233.894,267.716l85.964-85.963c7.812-7.81,20.473-7.811,28.284,0c7.811,7.813,7.81,20.476-0.001,28.284L248.036,310.142
		c-7.813,7.812-20.477,7.809-28.284,0l-55.896-55.896c-7.811-7.811-7.811-20.474,0-28.284c7.813-7.81,20.476-7.811,28.284,0
		L233.894,267.716z"/>
</g>
</svg>
